<svg xmlns="http://www.w3.org/2000/svg" viewBox="0 0 360 88" role="img" aria-labelledby="title description">
  <title id="title">BitScope</title>
  <desc id="description">A radar scope beside the BitScope Bitcoin Core lab wordmark.</desc>
  <g transform="translate(8 8)">
    <rect width="72" height="72" rx="16" fill="#0e1211"/>
    <svg x="10" y="10" width="52" height="52" viewBox="0 -960 960 960" fill="#43a787" aria-hidden="true">
      <path d="M324-111.5Q251-143 197-197t-85.5-127Q80-397 80-480t31.5-156Q143-709 197-763t127-85.5Q397-880 480-880t156 31.5Q709-817 763-763t85.5 127Q880-563 880-480t-31.5 156Q817-251 763-197t-127 85.5Q563-80 480-80t-156-31.5ZM480-140q63 0 118.5-20.5T699-219l-72-71q-31 23-68 36.5T480-240q-100 0-170-70t-70-170q0-100 70-170t170-70q100 0 170 70t70 170q0 42-13.5 79T670-333l71 71q37-45 58-100t21-118q0-142-99-241t-241-99q-142 0-241 99t-99 241q0 142 99 241t241 99Zm0-160q29 0 55.5-8.5T584-333l-74-73q-7 3-14.5 4.5T480-400q-33 0-56.5-23.5T400-480q0-33 23.5-56.5T480-560q33 0 56.5 23.5T560-480q0 8-2 16t-5 16l74 72q16-22 24.5-48.5T660-480q0-75-52.5-127.5T480-660q-75 0-127.5 52.5T300-480q0 75 52.5 127.5T480-300Z"/>
      <circle cx="310" cy="-620" r="30" fill="#f7931a"/>
      <circle cx="680" cy="-320" r="38" fill="#f7931a"/>
    </svg>
  </g>
  <text x="98" y="45" fill="#17201b" font-family="Inter, ui-sans-serif, system-ui, sans-serif" font-size="36" font-weight="700" letter-spacing="-.8">BitScope</text>
  <text x="100" y="67" fill="#1f6b55" font-family="Inter, ui-sans-serif, system-ui, sans-serif" font-size="15" font-weight="600" letter-spacing="1.4">BITCOIN CORE LAB</text>
</svg>
